<?xml version="1.0" encoding="utf-8"?>
<!-- Generator: Adobe Illustrator 27.3.1, SVG Export Plug-In . SVG Version: 6.00 Build 0)  -->
<svg version="1.1" id="Ebene_1" xmlns="http://www.w3.org/2000/svg" xmlns:xlink="http://www.w3.org/1999/xlink" x="0px" y="0px"
	 viewBox="0 0 100 100" style="enable-background:new 0 0 100 100;" xml:space="preserve">
<style type="text/css">
	.st0{clip-path:url(#SVGID_00000056403468894246570190000000308692670506590342_);}
	.st1{fill:#FFFFFF;}
</style>
<g>
	<g>
		<defs>
			<circle id="SVGID_1_" cx="50.1" cy="50" r="50"/>
		</defs>
		<clipPath id="SVGID_00000152248238301434204480000005484297727777311878_">
			<use xlink:href="#SVGID_1_"  style="overflow:visible;"/>
		</clipPath>
		<g style="clip-path:url(#SVGID_00000152248238301434204480000005484297727777311878_);">
			<g>
				<defs>
					<rect id="SVGID_00000152969101331598949610000013076257090482522530_" x="-4.9" y="-5" width="110" height="110"/>
				</defs>
				<clipPath id="SVGID_00000003093876917949411000000008455035578597842076_">
					<use xlink:href="#SVGID_00000152969101331598949610000013076257090482522530_"  style="overflow:visible;"/>
				</clipPath>
				<g style="clip-path:url(#SVGID_00000003093876917949411000000008455035578597842076_);">
					
						<image style="overflow:visible;" width="230" height="230" xlink:href="815128540FD3BDB9.jpg"  transform="matrix(0.48 0 0 0.48 -5.28 -5.28)">
					</image>
				</g>
			</g>
		</g>
	</g>
</g>
<g>
	<path class="st1" d="M50,64l-5.5,10.6c-1.3,2.5-3.5,3.6-5.9,3.6c-2.5,0-4.7-1.2-6-3.6L11.4,35.2c-0.8-1.5,0.3-3.2,1.9-3.2h8.9
		c0.8,0,1.6,0.5,1.9,1.2L39,61.9l5.2-9.1l-9-17.6c-0.7-1.5,0.3-3.2,1.9-3.2h9c0.8,0,1.6,0.5,2,1.2l13.7,28.7l14.9-28.7
		c0.4-0.7,1.1-1.2,1.9-1.2h8c1.7,0,2.7,1.8,1.9,3.2L67.2,74.6c-1.3,2.5-3.5,3.6-6,3.6c-2.5,0-4.7-1.1-5.9-3.6L50,64z"/>
</g>
</svg>
